<?xml version="1.0" encoding="UTF-8"?>
<svg width="150px" height="150px" viewBox="0 0 150 150" version="1.1" xmlns="http://www.w3.org/2000/svg" xmlns:xlink="http://www.w3.org/1999/xlink">
    <!-- Generator: Sketch 51.3 (57544) - http://www.bohemiancoding.com/sketch -->
    <title>rsg-patch-circle-color</title>
    <desc>Created with Sketch.</desc>
    <defs></defs>
    <g id="rsg-patch-circle-color" stroke="none" stroke-width="1" fill="none" fill-rule="evenodd">
        <path d="M147.5548,74.9024 C147.5548,115.0274 115.0268,147.5544 74.9028,147.5544 C34.7778,147.5544 2.2498,115.0274 2.2498,74.9024 C2.2498,34.7774 34.7778,2.2504 74.9028,2.2504 C115.0268,2.2504 147.5548,34.7774 147.5548,74.9024" id="bacground" fill="#1290B1"></path>
        <path d="M12.1408,111.4844 C24.7408,133.0534 48.1208,147.5544 74.9028,147.5544 C101.7998,147.5544 125.2658,132.9264 137.8258,111.2044 L136.6268,111.3014 L93.2198,111.2814 C82.4148,111.2814 78.7858,105.9754 78.7858,95.7294 L78.7858,93.5104 L70.7858,93.4764 L70.7858,95.7294 C70.7858,105.9754 67.1568,111.2814 56.3518,111.2814 L13.1778,111.2874 L12.1408,111.4844 Z" id="thrust-fill" fill="#FEFEFE"></path>
        <g id="Group-2" transform="translate(43.000000, 121.000000)" fill="#1290B1">
            <path d="M8.2043,2.7822 L4.6343,2.7822 C3.6593,2.7822 3.4793,2.9322 3.4793,3.7422 L3.4793,7.4922 C3.4793,8.3032 3.6593,8.4522 4.6343,8.4522 L8.2043,8.4522 C8.5493,8.4522 8.6993,8.3032 8.6993,7.9872 L8.6993,7.1022 L6.5393,7.1022 C6.3143,7.1022 6.1943,6.9822 6.1943,6.7722 L6.1943,5.1222 C6.1943,4.9122 6.3143,4.7922 6.5393,4.7922 L11.2943,4.7922 C11.5183,4.7922 11.6393,4.9122 11.6393,5.1222 L11.6393,8.5122 C11.6393,10.2822 11.0233,10.8672 9.1793,10.8672 L2.9693,10.8672 C1.2293,10.8672 0.4493,10.1472 0.4493,8.4672 L0.4493,2.7672 C0.4493,1.0882 1.2293,0.3672 2.9693,0.3672 L9.1793,0.3672 C11.0233,0.3672 11.6393,0.9182 11.6393,2.0752 L11.6393,2.4622 C11.6393,2.6722 11.5183,2.7922 11.2943,2.7922 C11.2943,2.7922 8.5493,2.7822 8.2043,2.7822" id="Fill-33"></path>
            <path d="M18.2067,7.4922 C18.2067,8.3032 18.3867,8.4522 19.3607,8.4522 L22.0167,8.4522 C23.0067,8.4522 23.1717,8.3032 23.1717,7.4922 L23.1717,0.6972 C23.1717,0.4872 23.2917,0.3672 23.5167,0.3672 L25.8557,0.3672 C26.0657,0.3672 26.2007,0.4872 26.2007,0.6972 L26.2007,8.4672 C26.2007,10.1472 25.4507,10.8672 23.6957,10.8672 L17.6967,10.8672 C15.9417,10.8672 15.1767,10.1472 15.1767,8.4672 L15.1767,0.6972 C15.1767,0.4872 15.2967,0.3672 15.5207,0.3672 L17.8617,0.3672 C18.0867,0.3672 18.2067,0.4872 18.2067,0.6972 L18.2067,7.4922 Z" id="Fill-35"></path>
            <path d="M33.5802,10.5371 C33.5802,10.7471 33.4442,10.8671 33.2202,10.8671 L30.8942,10.8671 C30.6702,10.8671 30.5502,10.7471 30.5502,10.5371 L30.5502,0.6971 C30.5502,0.4871 30.6702,0.3671 30.8942,0.3671 L33.2202,0.3671 C33.4442,0.3671 33.5802,0.4871 33.5802,0.6971 L33.5802,10.5371 Z" id="Fill-37"></path>
            <path d="M40.9601,8.4522 L48.5621,8.4522 C48.7861,8.4522 48.9061,8.5722 48.9061,8.7822 L48.9061,10.5372 C48.9061,10.7472 48.7861,10.8672 48.5621,10.8672 L38.2741,10.8672 C38.0501,10.8672 37.9301,10.7472 37.9301,10.5372 L37.9301,0.6972 C37.9301,0.4872 38.0501,0.3672 38.2741,0.3672 L40.6001,0.3672 C40.8241,0.3672 40.9601,0.4872 40.9601,0.6972 L40.9601,8.4522 Z" id="Fill-39"></path>
            <path d="M55.2858,8.4522 L58.9448,8.4522 C59.9498,8.4522 60.3248,8.1522 60.3248,7.2972 L60.3248,3.9372 C60.3248,3.0982 59.9498,2.7822 58.9448,2.7822 L55.2858,2.7822 L55.2858,8.4522 Z M60.0408,0.3672 C62.1248,0.3672 63.3548,1.5222 63.3548,3.5322 L63.3548,7.7022 C63.3548,9.7122 62.1248,10.8672 60.0408,10.8672 L52.5998,10.8672 C52.3758,10.8672 52.2558,10.7472 52.2558,10.5372 L52.2558,0.6972 C52.2558,0.4872 52.3758,0.3672 52.5998,0.3672 L60.0408,0.3672 Z" id="Fill-41"></path>
        </g>
        <g id="Group" transform="translate(13.000000, 12.000000)" fill="#FEFEFE">
            <path d="M8.3776,81.209 L7.2176,77.423 C6.9626,76.591 6.7946,76.501 6.1066,76.712 L5.4886,76.901 C4.8006,77.112 4.7106,77.28 4.9656,78.112 L6.1256,81.899 L8.3776,81.209 Z M3.7696,74.259 L5.7636,73.647 C7.3696,73.155 8.4166,73.604 8.9356,75.296 L8.9486,75.339 L11.1026,71.667 C11.1966,71.513 11.4046,71.526 11.4526,71.685 L12.3186,74.511 C12.4016,74.783 12.3806,74.915 12.2416,75.13 L10.0716,78.493 L10.6876,80.502 L13.5416,79.627 C13.7416,79.565 13.8966,79.659 13.9626,79.875 L14.6446,82.098 C14.7096,82.313 14.6306,82.463 14.4296,82.524 L5.0206,85.407 C4.8186,85.469 4.6696,85.39 4.6036,85.174 L2.2086,77.356 C1.6906,75.664 2.1626,74.751 3.7696,74.259 Z" id="Fill-5"></path>
            <path d="M3.7917,60.5645 C2.9817,60.5785 2.8347,60.7455 2.8507,61.7355 L2.8997,64.7945 C2.9167,65.7705 3.0687,65.9485 3.8797,65.9345 L7.6287,65.8745 C8.4387,65.8605 8.5857,65.6775 8.5697,64.7035 L8.5207,61.6435 C8.5047,60.6535 8.3517,60.4905 7.5417,60.5035 L3.7917,60.5645 Z M8.4677,57.4585 C10.1467,57.4305 10.8797,58.1685 10.9077,59.9235 L11.0127,66.3295 C11.0407,68.0685 10.3337,68.8605 8.6527,68.8875 L2.9537,68.9805 C1.2727,69.0075 0.5407,68.2395 0.5127,66.5005 L0.4077,60.0945 C0.3797,58.3395 1.0877,57.5785 2.7677,57.5505 L8.4677,57.4585 Z" id="Fill-7"></path>
            <path d="M11.6095,43.4463 C11.6685,43.2283 11.8155,43.1433 12.0175,43.1983 L12.4195,43.3193 C13.6225,43.6603 13.9735,44.3573 13.4945,46.1383 L11.9665,51.8293 C11.5145,53.5093 10.6165,54.0753 8.9955,53.6393 L3.4925,52.1613 C1.8705,51.7243 1.3785,50.7853 1.8295,49.1053 L3.3595,43.4143 C3.8375,41.6343 4.4145,41.1923 5.8795,41.5533 L6.0715,41.5953 C6.2745,41.6503 6.3595,41.7973 6.3005,42.0143 C6.3005,42.0143 5.5265,44.6493 5.4375,44.9823 L4.5925,48.1243 C4.3395,49.0653 4.4385,49.2783 5.2205,49.4883 L8.8405,50.4613 C9.6215,50.6713 9.8145,50.5363 10.0665,49.5953 L10.9105,46.4533 C11.0005,46.1203 11.6095,43.4463 11.6095,43.4463" id="Fill-9"></path>
            <path d="M14.4948,32.0508 L21.0228,30.8158 C21.1998,30.7818 21.3288,30.9468 21.2368,31.1008 L19.6958,33.6768 C19.5718,33.8828 19.4598,33.9548 19.2068,33.9958 L14.1688,34.8468 L13.3748,36.1728 L16.6458,38.1308 C16.8258,38.2378 16.8598,38.4158 16.7448,38.6098 L15.5498,40.6058 C15.4338,40.7978 15.2688,40.8398 15.0898,40.7318 L6.6408,35.6768 C6.4608,35.5698 6.4198,35.4048 6.5348,35.2108 L7.7288,33.2148 C7.8458,33.0218 8.0168,32.9678 8.1978,33.0748 L11.3408,34.9558 L12.2258,33.4748 L10.6688,28.7998 C10.5858,28.5578 10.5968,28.4238 10.7198,28.2178 L12.1758,25.7838 C12.2608,25.6428 12.4538,25.6708 12.5198,25.8508 L14.4948,32.0508 Z" id="Fill-11"></path>
            <path d="M23.5465,14.1055 C23.7105,13.9515 23.8805,13.9575 24.0245,14.1105 L25.2265,15.3905 C25.3695,15.5425 25.3635,15.7125 25.1995,15.8675 L19.9705,20.7755 L21.0895,21.9675 L25.4665,17.8605 C25.6185,17.7165 25.7995,17.7115 25.9435,17.8655 L27.0725,19.0685 C27.2175,19.2215 27.2005,19.4015 27.0475,19.5455 L22.6715,23.6535 L23.8525,24.9115 L29.0815,20.0025 C29.2455,19.8485 29.4155,19.8535 29.5595,20.0065 L30.7605,21.2875 C30.9045,21.4405 30.8995,21.6105 30.7345,21.7635 L23.5475,28.5105 C23.3835,28.6655 23.2135,28.6595 23.0695,28.5065 L16.3325,21.3295 C16.1895,21.1755 16.1945,21.0065 16.3595,20.8525 L23.5465,14.1055 Z" id="Fill-13"></path>
            <path d="M32.9606,10.8994 L29.7916,12.5764 C29.5936,12.6814 29.4316,12.6314 29.3326,12.4464 L28.5116,10.8944 C28.4126,10.7094 28.4626,10.5464 28.6616,10.4414 L37.6786,5.6694 C37.8776,5.5634 38.0396,5.6134 38.1386,5.7984 L38.9596,7.3504 C39.0576,7.5364 39.0076,7.6984 38.8086,7.8034 L35.6396,9.4814 L39.2686,16.3364 C39.3666,16.5224 39.3036,16.6914 39.1176,16.7904 L37.0496,17.8844 C36.8506,17.9904 36.6886,17.9404 36.5896,17.7544 L32.9606,10.8994 Z" id="Fill-15"></path>
            <path d="M54.3991,9.5069 L58.4581,9.1049 C58.9511,9.0559 59.0851,8.8919 59.0481,8.5189 L58.9811,7.8469 C58.9441,7.4739 58.7801,7.3389 58.2881,7.3889 L53.4531,7.8679 C51.6921,8.0419 50.8891,7.3989 50.7241,5.7279 L50.5701,4.1749 C50.4041,2.5039 51.0641,1.7149 52.8251,1.5399 L58.6751,0.9599 C60.4961,0.7789 61.0081,1.1879 61.2191,2.4569 L61.2801,2.7889 C61.3001,2.9979 61.1931,3.1289 60.9681,3.1519 C60.9681,3.1519 58.2871,3.4249 57.9281,3.4609 L54.2271,3.8269 C53.7351,3.8759 53.6001,4.0399 53.6371,4.4129 L53.6951,4.9949 C53.7321,5.3679 53.8961,5.5029 54.3891,5.4539 L59.2241,4.9749 C60.9851,4.7999 61.7871,5.4439 61.9531,7.1149 L62.1161,8.7569 C62.2821,10.4279 61.6221,11.2169 59.8601,11.3919 L53.6681,12.0059 C51.8321,12.1879 51.2471,11.7949 51.0961,10.6159 L51.0271,10.1619 C51.0061,9.9529 51.1141,9.8219 51.3371,9.7999 C51.3371,9.7999 54.0551,9.5409 54.3991,9.5069" id="Fill-17"></path>
            <path d="M69.0124,8.4756 C68.8704,9.2736 69.0224,9.4536 69.9824,9.6226 L72.5964,10.0876 C73.5714,10.2606 73.7604,10.1426 73.9024,9.3446 L75.0904,2.6536 C75.1274,2.4466 75.2664,2.3496 75.4884,2.3886 L77.7924,2.7986 C77.9984,2.8346 78.1114,2.9766 78.0744,3.1836 L76.7144,10.8346 C76.4204,12.4896 75.5564,13.0676 73.8274,12.7596 L67.9194,11.7096 C66.1924,11.4036 65.5644,10.5606 65.8584,8.9066 L67.2184,1.2546 C67.2544,1.0476 67.3944,0.9516 67.6154,0.9906 L69.9194,1.3996 C70.1414,1.4386 70.2384,1.5786 70.2014,1.7856 L69.0124,8.4756 Z" id="Fill-19"></path>
            <path d="M84.6745,10.4326 L88.2325,12.1726 C89.0135,12.5556 89.1945,12.4936 89.5105,11.8466 L89.7935,11.2676 C90.1105,10.6196 90.0485,10.4396 89.2675,10.0576 L85.7095,8.3176 L84.6745,10.4326 Z M92.8985,11.8176 L91.9815,13.6906 C91.2425,15.1996 90.2005,15.6576 88.6115,14.8796 L88.5705,14.8606 L89.7795,18.9416 C89.8275,19.1156 89.6755,19.2576 89.5275,19.1856 L86.8725,17.8866 C86.6165,17.7616 86.5345,17.6556 86.4725,17.4076 L85.4995,13.5246 L83.6135,12.6016 L82.3015,15.2836 C82.2095,15.4716 82.0355,15.5206 81.8335,15.4206 L79.7445,14.3996 C79.5425,14.3006 79.4875,14.1406 79.5795,13.9516 L83.9035,5.1136 C83.9965,4.9246 84.1565,4.8696 84.3595,4.9676 L91.7025,8.5606 C93.2925,9.3386 93.6365,10.3086 92.8985,11.8176 Z" id="Fill-21"></path>
            <path d="M103.652,20.6084 C103.485,20.4574 103.326,20.2874 103.07,20.0554 L100.423,17.6584 C99.7,17.0044 99.465,16.9944 98.922,17.5944 L96.404,20.3764 C95.86,20.9764 95.893,21.2094 96.616,21.8634 L99.263,24.2594 C99.519,24.4914 99.731,24.4814 99.943,24.2474 L100.537,23.5904 L98.935,22.1404 C98.768,21.9904 98.759,21.8204 98.901,21.6654 L100.008,20.4414 C100.149,20.2854 100.319,20.2774 100.486,20.4274 L104.012,23.6204 C104.179,23.7714 104.187,23.9414 104.047,24.0964 L101.77,26.6104 C100.582,27.9224 99.733,27.9444 98.365,26.7054 L93.759,22.5364 C92.469,21.3684 92.375,20.3104 93.503,19.0644 L97.329,14.8374 C98.457,13.5914 99.519,13.5814 100.809,14.7504 L105.415,18.9194 C106.783,20.1574 106.734,21.0044 106.102,21.7544 L105.798,22.1054 C105.657,22.2614 105.487,22.2704 105.32,22.1194 L103.652,20.6084 Z" id="Fill-23"></path>
            <path d="M116.5651,33.9043 C116.6851,34.0943 116.6481,34.2593 116.4701,34.3723 L114.9871,35.3093 C114.8091,35.4223 114.6441,35.3843 114.5241,35.1943 L110.6951,29.1333 L109.3121,30.0073 L112.5171,35.0783 C112.6281,35.2563 112.5991,35.4343 112.4221,35.5463 L111.0271,36.4273 C110.8501,36.5403 110.6761,36.4893 110.5641,36.3123 L107.3601,31.2403 L105.9021,32.1613 L109.7311,38.2223 C109.8511,38.4123 109.8131,38.5783 109.6361,38.6903 L108.1521,39.6283 C107.9751,39.7393 107.8091,39.7023 107.6891,39.5113 L102.4261,31.1813 C102.3061,30.9913 102.3431,30.8253 102.5211,30.7143 L110.8381,25.4583 C111.0161,25.3453 111.1821,25.3833 111.3021,25.5733 L116.5651,33.9043 Z" id="Fill-25"></path>
            <path d="M118.3727,48.6778 C119.1507,48.4508 119.2487,48.2498 118.9717,47.2998 L118.1157,44.3618 C117.8437,43.4248 117.6477,43.2938 116.8707,43.5208 L113.2687,44.5698 C112.4917,44.7958 112.3977,45.0108 112.6707,45.9478 L113.5267,48.8858 C113.8037,49.8368 113.9937,49.9528 114.7717,49.7268 L118.3727,48.6778 Z M114.6837,52.9088 C113.0697,53.3788 112.1687,52.8608 111.6777,51.1748 L109.8867,45.0248 C109.3987,43.3538 109.8727,42.4038 111.4857,41.9328 L116.9597,40.3378 C118.5727,39.8678 119.4817,40.4158 119.9697,42.0868 L121.7607,48.2378 C122.2517,49.9228 121.7697,50.8448 120.1567,51.3148 L114.6837,52.9088 Z" id="Fill-27"></path>
            <path d="M112.7868,63.9522 C112.7908,63.7122 112.8688,63.5632 113.0648,63.4762 L120.9588,59.6742 L113.1888,59.5482 C112.9788,59.5442 112.8608,59.4072 112.8648,59.1972 L112.8988,57.0982 C112.9018,56.8722 113.0238,56.7542 113.2338,56.7582 L123.0738,56.9182 C123.2838,56.9212 123.4018,57.0432 123.3978,57.2682 L123.3348,61.2132 C123.3308,61.4532 123.2528,61.6012 123.0568,61.6882 L115.1478,65.4902 L122.9318,65.6172 C123.1418,65.6212 123.2608,65.7582 123.2568,65.9822 L123.2228,68.0672 C123.2198,68.2932 123.0978,68.4112 122.8878,68.4072 L113.0478,68.2472 C112.8378,68.2442 112.7198,68.1222 112.7238,67.8962 L112.7868,63.9522 Z" id="Fill-29"></path>
            <path d="M113.6989,75.292 L112.5529,79.21 C112.4139,79.685 112.5159,79.871 112.8759,79.977 L113.5239,80.166 C113.8849,80.271 114.0699,80.169 114.2099,79.694 L115.5739,75.026 C116.0709,73.327 116.9689,72.823 118.5819,73.295 L120.0799,73.733 C121.6929,74.205 122.1779,75.112 121.6809,76.813 L120.0309,82.459 C119.5159,84.216 119.0219,84.683 117.6479,84.31 L117.3449,84.217 C117.1439,84.158 117.0619,84.009 117.1259,83.793 C117.1259,83.793 117.8879,81.176 117.9889,80.83 L119.0339,77.258 C119.1729,76.782 119.0709,76.597 118.7109,76.491 L118.1489,76.327 C117.7889,76.222 117.6029,76.323 117.4639,76.799 L116.0989,81.466 C115.6019,83.166 114.7049,83.669 113.0919,83.197 L111.5069,82.734 C109.8929,82.263 109.4089,81.354 109.9049,79.655 L111.6529,73.677 C112.1719,71.905 112.9189,71.567 113.9909,71.824 L114.4099,71.94 C114.6119,71.999 114.6939,72.148 114.6299,72.364 C114.6299,72.364 113.7959,74.96 113.6989,75.292" id="Fill-31"></path>
        </g>
        <g id="rocket-fill" transform="translate(47.000000, 49.000000)" fill="#FEFEFE">
            <path d="M19.0529,12.7881 C16.7969,22.9541 18.3289,32.5551 21.8289,44.4981 L33.4639,44.4981 C36.9639,32.5561 38.9009,22.9541 36.6719,12.7881 L19.0529,12.7881 Z" id="Fill-43"></path>
            <path d="M6.5929,0.3291 C3.4829,5.1851 0.3049,12.3901 0.6679,19.1411 C7.1729,19.2571 14.1839,15.8871 19.0519,12.7881 L6.5929,0.3291 Z" id="Fill-45"></path>
        </g>
        <path d="M72.2861,94.9971 L72.2861,95.7281 C72.2861,107.5211 67.3721,112.7801 56.3521,112.7801 L12.9021,112.7851 C12.2991,111.8011 11.7201,110.8001 11.1641,109.7851 L56.3521,109.7801 C65.4981,109.7801 69.1501,105.9621 69.2741,96.2341 C69.2741,95.8967667 69.2741,95.4867667 69.2741,95.0041 L72.2861,94.9971 Z M80.2981,95.0041 C80.2981,95.4867667 80.2981,95.8937667 80.2981,96.2251 C80.4201,105.9601 84.0701,109.7801 93.2201,109.7801 L138.6341,109.7981 C138.0771,110.8121 137.4971,111.8131 136.8941,112.7981 L93.2191,112.7801 C82.2001,112.7801 77.2861,107.5211 77.2861,95.7281 L77.2861,95.0041 L80.2981,95.0041 Z" id="thrust" fill="#053247"></path>
        <g id="mark" transform="translate(45.307426, 34.800000)">
            <path d="M29.5779,42.5868 C31.8989,42.5868 33.7799,40.7058 33.7799,38.3848 C33.7799,36.0648 31.8989,34.1828 29.5779,34.1828 C27.2579,34.1828 25.3759,36.0648 25.3759,38.3848 C25.3759,40.7058 27.2579,42.5868 29.5779,42.5868 M21.949,28.58 L37.122,28.58 C38.798,37.486 37.265,46.008 34.013,57.29 L30.962,57.29 L30.962,47.258 L27.962,47.258 L27.962,57.29 L24.632,57.29 C21.673,46.964 20.13,38.008 21.949,28.58 Z M3.819,31.899 C3.95,26.009 6.667,20.308 8.558,17.033 L18.32,26.794 C14.719,28.909 9.219,31.559 3.819,31.899 Z M39.702,46.651 C41.011,39.651 41.244,33.291 39.812,26.759 L39.554,25.58 L21.349,25.58 L8.011,12.243 L7.006,13.813 C5.003,16.939 0.395,25.116 0.845,33.513 L0.921,34.907 L2.316,34.933 C2.435,34.934 2.553,34.935 2.672,34.935 C8.534,34.935 14.503,32.351 18.667,30.046 C17.833,35.71 18.107,41.214 19.099,46.929 L12.669,61.541 L12.669,67.612 L18.534,67.612 C18.534,66.304 19.188,65.074 20.234,64.006 C22.1,62.099 25.211,60.714 28.086,60.29 L30.894,60.29 C35.367,60.97 40.389,63.986 40.389,67.612 L46.255,67.612 L46.255,61.541 L39.702,46.651 Z" id="rocket" fill="#053247"></path>
            <path d="M47.9084,33.3759 C47.4374,33.3759 46.9744,33.1549 46.6824,32.7409 C46.2044,32.0649 46.3654,31.1289 47.0424,30.6509 L52.5804,26.7369 L46.2054,26.6799 L52.0414,16.7079 L42.9544,21.8989 L44.8924,9.1919 L38.1024,19.4289 L34.5904,8.0819 L33.3864,21.0089 L27.1334,15.9589 L28.3094,19.3789 C28.5794,20.1619 28.1634,21.0159 27.3804,21.2849 C26.5954,21.5569 25.7434,21.1399 25.4734,20.3549 L22.5974,12.0029 L24.9584,10.3479 L30.9174,15.1589 L32.3024,0.3049 L35.2274,-0.0001 L39.0984,12.5009 L46.1504,1.8689 L48.8834,2.9249 L46.8564,16.2159 L55.4274,11.3179 L57.4664,13.3789 L51.4104,23.7269 L57.2574,23.7789 L58.1084,26.5039 L48.7724,33.1009 C48.5104,33.2869 48.2084,33.3759 47.9084,33.3759" id="exclamation" fill="#E4B931"></path>
        </g>
        <path d="M145.3048,74.9024 C145.3048,36.0203908 113.784509,4.5004 74.9028,4.5004 C36.0202404,4.5004 4.4998,36.020241 4.4998,74.9024 C4.4998,113.784559 36.0202404,145.3044 74.9028,145.3044 C113.784509,145.3044 145.3048,113.784409 145.3048,74.9024 Z M149.8048,74.9024 C149.8048,116.2697 116.269781,149.8044 74.9028,149.8044 C33.5349781,149.8044 -0.0002,116.26986 -0.0002,74.9024 C-0.0002,33.5349405 33.5349781,0.0004 74.9028,0.0004 C116.269781,0.0004 149.8048,33.5350999 149.8048,74.9024 Z" id="border" fill="#AE8E2F" fill-rule="nonzero"></path>
    </g>
</svg>