<?xml version="1.0" encoding="UTF-8"?>
<svg width="194px" height="68px" viewBox="0 0 194 68" version="1.1" xmlns="http://www.w3.org/2000/svg" xmlns:xlink="http://www.w3.org/1999/xlink">
    <!-- Generator: Sketch 51.3 (57544) - http://www.bohemiancoding.com/sketch -->
    <title>rsg-lockup-horz-on-light</title>
    <desc>Created with Sketch.</desc>
    <defs></defs>
    <g id="rsg-lockup-horz-on-light" stroke="none" stroke-width="1" fill="none" fill-rule="evenodd">
        <g id="mark">
            <path d="M29.5779,42.5868 C31.8989,42.5868 33.7799,40.7058 33.7799,38.3848 C33.7799,36.0648 31.8989,34.1828 29.5779,34.1828 C27.2579,34.1828 25.3759,36.0648 25.3759,38.3848 C25.3759,40.7058 27.2579,42.5868 29.5779,42.5868 M21.949,28.58 L37.122,28.58 C38.798,37.486 37.265,46.008 34.013,57.29 L30.962,57.29 L30.962,47.258 L27.962,47.258 L27.962,57.29 L24.632,57.29 C21.673,46.964 20.13,38.008 21.949,28.58 Z M3.819,31.899 C3.95,26.009 6.667,20.308 8.558,17.033 L18.32,26.794 C14.719,28.909 9.219,31.559 3.819,31.899 Z M39.702,46.651 C41.011,39.651 41.244,33.291 39.812,26.759 L39.554,25.58 L21.349,25.58 L8.011,12.243 L7.006,13.813 C5.003,16.939 0.395,25.116 0.845,33.513 L0.921,34.907 L2.316,34.933 C2.435,34.934 2.553,34.935 2.672,34.935 C8.534,34.935 14.503,32.351 18.667,30.046 C17.833,35.71 18.107,41.214 19.099,46.929 L12.669,61.541 L12.669,67.612 L18.534,67.612 C18.534,66.304 19.188,65.074 20.234,64.006 C22.1,62.099 25.211,60.714 28.086,60.29 L30.894,60.29 C35.367,60.97 40.389,63.986 40.389,67.612 L46.255,67.612 L46.255,61.541 L39.702,46.651 Z" id="rocket" fill="#053247"></path>
            <polygon id="wing" fill="#053247" points="27.962 67.612 30.962 67.612 30.962 57.29 27.962 57.29"></polygon>
            <path d="M47.9084,33.3759 C47.4374,33.3759 46.9744,33.1549 46.6824,32.7409 C46.2044,32.0649 46.3654,31.1289 47.0424,30.6509 L52.5804,26.7369 L46.2054,26.6799 L52.0414,16.7079 L42.9544,21.8989 L44.8924,9.1919 L38.1024,19.4289 L34.5904,8.0819 L33.3864,21.0089 L27.1334,15.9589 L28.3094,19.3789 C28.5794,20.1619 28.1634,21.0159 27.3804,21.2849 C26.5954,21.5569 25.7434,21.1399 25.4734,20.3549 L22.5974,12.0029 L24.9584,10.3479 L30.9174,15.1589 L32.3024,0.3049 L35.2274,-0.0001 L39.0984,12.5009 L46.1504,1.8689 L48.8834,2.9249 L46.8564,16.2159 L55.4274,11.3179 L57.4664,13.3789 L51.4104,23.7269 L57.2574,23.7789 L58.1084,26.5039 L48.7724,33.1009 C48.5104,33.2869 48.2084,33.3759 47.9084,33.3759" id="exclamation" fill="#AE8E2F"></path>
        </g>
        <g id="logotype" transform="translate(74.000000, 17.000000)" fill="#AE8E2F">
            <path d="M4.52803279,41.59675 C3.47203279,41.59675 3.27836066,41.7776667 3.27836066,42.6551667 L3.27836066,46.7176667 C3.27836066,47.5951667 3.47203279,47.7576667 4.52803279,47.7576667 L8.39065574,47.7576667 C8.76393443,47.7576667 8.92622951,47.5951667 8.92622951,47.2539167 L8.92622951,46.2951667 L6.58809836,46.2951667 C6.34465574,46.2951667 6.21590164,46.1651667 6.21590164,45.9376667 L6.21590164,44.1490833 C6.21590164,43.9226667 6.34465574,43.7926667 6.58809836,43.7926667 L11.7339344,43.7926667 C11.977377,43.7926667 12.1072131,43.9226667 12.1072131,44.1490833 L12.1072131,47.8226667 C12.1072131,49.74125 11.4418033,50.375 9.44557377,50.375 L2.72547541,50.375 C0.842852459,50.375 0,49.5939167 0,47.7739167 L0,41.5989167 C0,39.7778333 0.842852459,39 2.72547541,39 L9.44557377,39 C11.4418033,39 12.1072131,39.6153333 12.1072131,40.508 L12.1072131,41.2403333 C12.1072131,41.46675 11.977377,41.59675 11.7339344,41.59675 L4.52803279,41.59675 Z" id="Fill-1"></path>
            <path d="M19.2783607,46.7176667 C19.2783607,47.59625 19.4731148,47.7576667 20.5280328,47.7576667 L23.4006557,47.7576667 C24.4718033,47.7576667 24.6503279,47.59625 24.6503279,46.7176667 L24.6503279,39.3564167 C24.6503279,39.1289167 24.7801639,39 25.0236066,39 L27.5554098,39 C27.7837049,39 27.9286885,39.1289167 27.9286885,39.3564167 L27.9286885,47.775 C27.9286885,49.5939167 27.1182951,50.375 25.2183607,50.375 L18.7265574,50.375 C16.8277049,50.375 16,49.5939167 16,47.775 L16,39.3564167 C16,39.1289167 16.1298361,39 16.3732787,39 L18.905082,39 C19.1485246,39 19.2783607,39.1289167 19.2783607,39.3564167 L19.2783607,46.7176667 Z" id="Fill-4"></path>
            <path d="M34.2783607,50.0164167 C34.2783607,50.245 34.1322951,50.375 33.8899344,50.375 L31.3732787,50.375 C31.1298361,50.375 31,50.245 31,50.0164167 L31,39.3564167 C31,39.1289167 31.1298361,39 31.3732787,39 L33.8899344,39 C34.1322951,39 34.2783607,39.1289167 34.2783607,39.3564167 L34.2783607,50.0164167 Z" id="Fill-7"></path>
            <path d="M41.2783607,47.7576667 L49.385541,47.7576667 C49.6279016,47.7576667 49.7577377,47.8876667 49.7577377,48.11625 L49.7577377,50.0164167 C49.7577377,50.245 49.6279016,50.375 49.385541,50.375 L38.3732787,50.375 C38.1298361,50.375 38,50.245 38,50.0164167 L38,39.3564167 C38,39.1289167 38.1298361,39 38.3732787,39 L40.8888525,39 C41.1312131,39 41.2783607,39.1289167 41.2783607,39.3564167 L41.2783607,47.7576667 Z" id="Fill-10"></path>
            <path d="M56.2783607,47.7576667 L60.2383607,47.7576667 C61.3257377,47.7576667 61.7314754,47.4326667 61.7314754,46.5075 L61.7314754,42.8664167 C61.7314754,41.9575 61.3257377,41.6151667 60.2383607,41.6151667 L56.2783607,41.6151667 L56.2783607,47.7576667 Z M61.4231148,39 C63.6790164,39 65.0098361,40.2501667 65.0098361,42.4276667 L65.0098361,46.94625 C65.0098361,49.12375 63.6790164,50.375 61.4231148,50.375 L53.3721967,50.375 C53.1287541,50.375 53,50.245 53,50.0164167 L53,39.3564167 C53,39.1289167 53.1287541,39 53.3721967,39 L61.4231148,39 Z" id="Fill-13"></path>
            <path d="M8.10810811,28.82 C8.64324324,28.82 8.80540541,28.6563636 8.80540541,28.2472727 L8.80540541,27.5109091 C8.80540541,27.1018182 8.64324324,26.9370909 8.10810811,26.9370909 L2.85297297,26.9370909 C0.939459459,26.9370909 0.144864865,26.1527273 0.144864865,24.32 L0.144864865,22.6170909 C0.144864865,20.7854545 0.939459459,20 2.85297297,20 L9.21081081,20 C11.1891892,20 11.8540541,20.6381818 11.8540541,21.6254545 L11.8540541,22.2745455 C11.8540541,22.5025455 11.7243243,22.6334545 11.4810811,22.6334545 L4.11891892,22.6334545 C3.5827027,22.6334545 3.42162162,22.7970909 3.42162162,23.2061818 L3.42162162,23.8443636 C3.42162162,24.2534545 3.5827027,24.4181818 4.11891892,24.4181818 L9.37189189,24.4181818 C11.2864865,24.4181818 12.0810811,25.2036364 12.0810811,27.0363636 L12.0810811,28.8374545 C12.0810811,30.668 11.2864865,31.4545455 9.37189189,31.4545455 L2.64216216,31.4545455 C0.647567568,31.4545455 0,30.8163636 0,29.7669091 L0,29.18 C0,28.9509091 0.12972973,28.82 0.372972973,28.82 L8.10810811,28.82 Z" id="Fill-28"></path>
            <path d="M18.2756757,27.7727273 C18.2756757,28.6563636 18.4702703,28.82 19.5243243,28.82 L22.3945946,28.82 C23.4648649,28.82 23.6432432,28.6563636 23.6432432,27.7727273 L23.6432432,20.3589091 C23.6432432,20.1309091 23.7718919,20 24.0162162,20 L26.5459459,20 C26.772973,20 26.9189189,20.1309091 26.9189189,20.3589091 L26.9189189,28.8374545 C26.9189189,30.668 26.1081081,31.4545455 24.2108108,31.4545455 L17.7243243,31.4545455 C15.827027,31.4545455 15,30.668 15,28.8374545 L15,20.3589091 C15,20.1309091 15.1286486,20 15.3718919,20 L17.9027027,20 C18.1459459,20 18.2756757,20.1309091 18.2756757,20.3589091 L18.2756757,27.7727273 Z" id="Fill-30"></path>
            <path d="M34.2756757,25.2036364 L38.5567568,25.2036364 C39.4983784,25.2036364 39.6432432,25.0563636 39.6432432,24.272 L39.6432432,23.5672727 C39.6432432,22.7818182 39.4983784,22.6345455 38.5567568,22.6345455 L34.2756757,22.6345455 L34.2756757,25.2036364 Z M42.9189189,22.6181818 L42.9189189,24.8927273 C42.9189189,26.7265455 42.1243243,27.6756364 40.2108108,27.6756364 L40.1632432,27.6756364 L43.2767568,31.0945455 C43.4064865,31.2418182 43.3254054,31.4545455 43.147027,31.4545455 L39.9513514,31.4545455 C39.6432432,31.4545455 39.5135135,31.3890909 39.3362162,31.1763636 L36.547027,27.8392727 L34.2756757,27.8392727 L34.2756757,31.0945455 C34.2756757,31.3236364 34.1297297,31.4545455 33.8875676,31.4545455 L31.372973,31.4545455 C31.1297297,31.4545455 31,31.3236364 31,31.0945455 L31,20.36 C31,20.132 31.1297297,20 31.372973,20 L40.2108108,20 C42.1243243,20 42.9189189,20.7854545 42.9189189,22.6181818 Z" id="Fill-32"></path>
            <path d="M50.5254054,22.6334545 C49.4702703,22.6334545 49.2767568,22.7970909 49.2767568,23.6807273 L49.2767568,27.7727273 C49.2767568,28.6563636 49.4702703,28.82 50.5254054,28.82 L54.3848649,28.82 C54.7578378,28.82 54.92,28.6563636 54.92,28.3127273 L54.92,27.3461818 L52.5837838,27.3461818 C52.3405405,27.3461818 52.2118919,27.2163636 52.2118919,26.9861818 L52.2118919,25.1861818 C52.2118919,24.9581818 52.3405405,24.8272727 52.5837838,24.8272727 L57.7254054,24.8272727 C57.9686486,24.8272727 58.0983784,24.9581818 58.0983784,25.1861818 L58.0983784,28.8854545 C58.0983784,30.8163636 57.4335135,31.4545455 55.4389189,31.4545455 L48.7243243,31.4545455 C46.8432432,31.4545455 46,30.668 46,28.8374545 L46,22.6170909 C46,20.7854545 46.8432432,20 48.7243243,20 L55.4389189,20 C57.4335135,20 58.0983784,20.6381818 58.0983784,21.5589091 L58.0983784,22.2745455 C58.0983784,22.5025455 57.9686486,22.6334545 57.7254054,22.6334545 L50.5254054,22.6334545 Z" id="Fill-34"></path>
            <path d="M72.0281081,20 C72.2702703,20 72.4010811,20.1309091 72.4010811,20.3589091 L72.4010811,22.2745455 C72.4010811,22.5025455 72.2702703,22.6334545 72.0281081,22.6334545 L64.2756757,22.6334545 L64.2756757,24.4181818 L70.7621622,24.4181818 C70.9902703,24.4181818 71.1351351,24.5490909 71.1351351,24.7781818 L71.1351351,26.5781818 C71.1351351,26.8061818 70.9902703,26.9370909 70.7621622,26.9370909 L64.2756757,26.9370909 L64.2756757,28.82 L72.0281081,28.82 C72.2702703,28.82 72.4010811,28.9509091 72.4010811,29.18 L72.4010811,31.0945455 C72.4010811,31.3236364 72.2702703,31.4545455 72.0281081,31.4545455 L61.372973,31.4545455 C61.1297297,31.4545455 61,31.3236364 61,31.0945455 L61,20.3589091 C61,20.1309091 61.1297297,20 61.372973,20 L72.0281081,20 Z" id="Fill-36"></path>
            <path d="M85.0810811,23.6807273 C85.0810811,22.7970909 84.9027027,22.6334545 83.8324324,22.6334545 L80.5243243,22.6334545 C79.4702703,22.6334545 79.2756757,22.7970909 79.2756757,23.6807273 L79.2756757,27.7727273 C79.2756757,28.6563636 79.4702703,28.82 80.5243243,28.82 L83.8324324,28.82 C84.9027027,28.82 85.0810811,28.6563636 85.0810811,27.7727273 L85.0810811,23.6807273 Z M88.3567568,28.8374545 C88.3567568,30.668 87.5459459,31.4545455 85.6486486,31.4545455 L78.7243243,31.4545455 C76.8432432,31.4545455 76,30.668 76,28.8374545 L76,22.6170909 C76,20.7854545 76.8432432,20 78.7243243,20 L85.6486486,20 C87.5459459,20 88.3567568,20.7854545 88.3567568,22.6170909 L88.3567568,28.8374545 Z" id="Fill-38"></path>
            <path d="M99.7848649,31.4545455 C99.5243243,31.4545455 99.3632432,31.3727273 99.2648649,31.1589091 L95.0162162,22.6170909 L95.0162162,31.0945455 C95.0162162,31.3236364 94.8702703,31.4545455 94.6443243,31.4545455 L92.372973,31.4545455 C92.1297297,31.4545455 92,31.3236364 92,31.0945455 L92,20.3589091 C92,20.1309091 92.1297297,20 92.372973,20 L96.6378378,20 C96.8972973,20 97.0594595,20.0818182 97.1567568,20.2945455 L101.406486,28.8527273 L101.406486,20.3589091 C101.406486,20.1309091 101.551351,20 101.794595,20 L104.048649,20 C104.291892,20 104.421622,20.1309091 104.421622,20.3589091 L104.421622,31.0945455 C104.421622,31.3236364 104.291892,31.4545455 104.048649,31.4545455 L99.7848649,31.4545455 Z" id="Fill-40"></path>
            <path d="M115.108108,28.82 C115.643243,28.82 115.806486,28.6563636 115.806486,28.2472727 L115.806486,27.5109091 C115.806486,27.1018182 115.643243,26.9370909 115.108108,26.9370909 L109.854054,26.9370909 C107.940541,26.9370909 107.145946,26.1527273 107.145946,24.32 L107.145946,22.6170909 C107.145946,20.7854545 107.940541,20 109.854054,20 L116.211892,20 C118.189189,20 118.854054,20.6381818 118.854054,21.6865455 L118.854054,22.2745455 C118.854054,22.5025455 118.724324,22.6334545 118.481081,22.6334545 L111.118919,22.6334545 C110.583784,22.6334545 110.421622,22.7970909 110.421622,23.2061818 L110.421622,23.8443636 C110.421622,24.2534545 110.583784,24.4181818 111.118919,24.4181818 L116.372973,24.4181818 C118.286486,24.4181818 119.081081,25.2036364 119.081081,27.0363636 L119.081081,28.8374545 C119.081081,30.668 118.286486,31.4545455 116.372973,31.4545455 L109.642162,31.4545455 C107.648649,31.4545455 107,30.8163636 107,29.7810909 L107,29.18 C107,28.9509091 107.12973,28.82 107.372973,28.82 L115.108108,28.82 Z" id="Fill-42"></path>
            <path d="M4.28865854,5.16858333 L8.58670732,5.16858333 C9.53097561,5.16858333 9.6775,5.02125 9.6775,4.24233333 L9.6775,3.54358333 C9.6775,2.7625 9.53097561,2.61625 8.58670732,2.61625 L4.28865854,2.61625 L4.28865854,5.16858333 Z M12.9661585,2.6 L12.9661585,4.85875 C12.9661585,6.67983333 12.1684146,7.62233333 10.2473171,7.62233333 L10.1984756,7.62233333 L13.3243293,11.0175 C13.4545732,11.1648333 13.3731707,11.375 13.1951707,11.375 L9.98682927,11.375 C9.6775,11.375 9.5472561,11.31 9.36817073,11.0998333 L6.56792683,7.78483333 L4.28865854,7.78483333 L4.28865854,11.0175 C4.28865854,11.245 4.14104878,11.375 3.89792683,11.375 L1.37336585,11.375 C1.12915854,11.375 1,11.245 1,11.0175 L1,0.358583333 C1,0.131083333 1.12915854,0 1.37336585,0 L10.2473171,0 C12.1684146,0 12.9661585,0.78 12.9661585,2.6 Z" id="Fill-16"></path>
            <path d="M25.1170732,3.65625 C25.1170732,2.77766667 24.9379878,2.61516667 23.8634756,2.61516667 L20.5433415,2.61516667 C19.4840244,2.61516667 19.2886585,2.77766667 19.2886585,3.65625 L19.2886585,7.71875 C19.2886585,8.59625 19.4840244,8.75875 20.5433415,8.75875 L23.8634756,8.75875 C24.9379878,8.75875 25.1170732,8.59625 25.1170732,7.71875 L25.1170732,3.65625 Z M28.4057317,8.77608333 C28.4057317,10.595 27.5927927,11.375 25.6868902,11.375 L18.735122,11.375 C16.8465854,11.375 16,10.595 16,8.77608333 L16,2.59891667 C16,0.78 16.8465854,0 18.735122,0 L25.6868902,0 C27.5927927,0 28.4057317,0.78 28.4057317,2.59891667 L28.4057317,8.77608333 Z" id="Fill-18"></path>
            <path d="M43.4289024,8.75875 C43.6731098,8.75875 43.8033537,8.88875 43.8033537,9.11625 L43.8033537,9.65141667 C43.8033537,10.74125 43.1358537,11.375 41.1333537,11.375 L34.7340366,11.375 C32.8465854,11.375 32,10.595 32,8.77608333 L32,2.59891667 C32,0.78 32.8465854,0 34.7340366,0 L41.1333537,0 C43.1358537,0 43.8033537,0.63375 43.8033537,1.84275 L43.8033537,2.25658333 C43.8033537,2.48408333 43.6731098,2.613 43.4289024,2.613 L36.5422561,2.61516667 C35.4840244,2.61516667 35.2886585,2.77766667 35.2886585,3.65625 L35.2886585,7.71875 C35.2886585,8.59625 35.4840244,8.75875 36.5422561,8.75875 L40.075122,8.75875 L43.4289024,8.75875 Z" id="Fill-20"></path>
            <path d="M54.7505976,5.63875 L59.537061,11.0175 C59.6673049,11.1648333 59.5859024,11.375 59.3905366,11.375 L56.134439,11.375 C55.8739512,11.375 55.7437073,11.3089167 55.564622,11.09875 L51.9666341,6.89 L50.2897439,6.89 L50.2897439,11.0175 C50.2897439,11.245 50.1421341,11.375 49.8990122,11.375 L47.3755366,11.375 C47.1302439,11.375 47,11.245 47,11.0175 L47,0.3575 C47,0.13 47.1302439,0 47.3755366,0 L49.8990122,0 C50.1421341,0 50.2897439,0.13 50.2897439,0.3575 L50.2897439,4.32141667 L52.162,4.32141667 L55.6460244,0.27625 C55.8251098,0.0639166667 55.9553537,0 56.2158415,0 L59.2928537,0 C59.471939,0 59.5533415,0.195 59.4230976,0.3575 L54.7505976,5.63875 Z" id="Fill-22"></path>
            <path d="M74.0718171,0 C74.3160244,0 74.4462683,0.13 74.4462683,0.3575 L74.4462683,2.25875 C74.4462683,2.48625 74.3160244,2.61516667 74.0718171,2.61516667 L66.2897439,2.61516667 L66.2897439,4.3875 L72.801939,4.3875 C73.0298659,4.3875 73.1763902,4.5175 73.1763902,4.745 L73.1763902,6.5325 C73.1763902,6.76 73.0298659,6.89 72.801939,6.89 L66.2897439,6.89 L66.2897439,8.75875 L74.0718171,8.75875 C74.3160244,8.75875 74.4462683,8.88875 74.4462683,9.11625 L74.4462683,11.0175 C74.4462683,11.245 74.3160244,11.375 74.0718171,11.375 L63.3755366,11.375 C63.1302439,11.375 63,11.245 63,11.0175 L63,0.3575 C63,0.13 63.1302439,0 63.3755366,0 L74.0718171,0 Z" id="Fill-24"></path>
            <path d="M81.2665732,2.61516667 L77.3755366,2.61516667 C77.1313293,2.61516667 77,2.48625 77,2.25875 L77,0.3575 C77,0.13 77.1313293,0 77.3755366,0 L88.4462683,0 C88.6904756,0 88.8207195,0.13 88.8207195,0.3575 L88.8207195,2.25875 C88.8207195,2.48625 88.6904756,2.61516667 88.4462683,2.61516667 L84.5552317,2.61516667 L84.5552317,11.0175 C84.5552317,11.245 84.4087073,11.375 84.1807805,11.375 L81.6410244,11.375 C81.3968171,11.375 81.2665732,11.245 81.2665732,11.0175 L81.2665732,2.61516667 Z" id="Fill-26"></path>
        </g>
    </g>
</svg>