<?xml version="1.0" encoding="UTF-8"?>
<svg width="59px" height="68px" viewBox="0 0 59 68" version="1.1" xmlns="http://www.w3.org/2000/svg" xmlns:xlink="http://www.w3.org/1999/xlink">
    <!-- Generator: Sketch 51.3 (57544) - http://www.bohemiancoding.com/sketch -->
    <title>rsg-mark-on-dark</title>
    <desc>Created with Sketch.</desc>
    <defs></defs>
    <g id="rsg-mark-on-dark" stroke="none" stroke-width="1" fill="none" fill-rule="evenodd">
        <g id="mark">
            <path d="M29.5779,42.5868 C31.8989,42.5868 33.7799,40.7058 33.7799,38.3848 C33.7799,36.0648 31.8989,34.1828 29.5779,34.1828 C27.2579,34.1828 25.3759,36.0648 25.3759,38.3848 C25.3759,40.7058 27.2579,42.5868 29.5779,42.5868 M21.949,28.58 L37.122,28.58 C38.798,37.486 37.265,46.008 34.013,57.29 L30.962,57.29 L30.962,47.258 L27.962,47.258 L27.962,57.29 L24.632,57.29 C21.673,46.964 20.13,38.008 21.949,28.58 Z M3.819,31.899 C3.95,26.009 6.667,20.308 8.558,17.033 L18.32,26.794 C14.719,28.909 9.219,31.559 3.819,31.899 Z M39.702,46.651 C41.011,39.651 41.244,33.291 39.812,26.759 L39.554,25.58 L21.349,25.58 L8.011,12.243 L7.006,13.813 C5.003,16.939 0.395,25.116 0.845,33.513 L0.921,34.907 L2.316,34.933 C2.435,34.934 2.553,34.935 2.672,34.935 C8.534,34.935 14.503,32.351 18.667,30.046 C17.833,35.71 18.107,41.214 19.099,46.929 L12.669,61.541 L12.669,67.612 L18.534,67.612 C18.534,66.304 19.188,65.074 20.234,64.006 C22.1,62.099 25.211,60.714 28.086,60.29 L30.894,60.29 C35.367,60.97 40.389,63.986 40.389,67.612 L46.255,67.612 L46.255,61.541 L39.702,46.651 Z" id="rocket" fill="#FFFFFF"></path>
            <polygon id="wing" fill="#FFFFFF" points="27.962 67.612 30.962 67.612 30.962 57.29 27.962 57.29"></polygon>
            <path d="M47.9084,33.3759 C47.4374,33.3759 46.9744,33.1549 46.6824,32.7409 C46.2044,32.0649 46.3654,31.1289 47.0424,30.6509 L52.5804,26.7369 L46.2054,26.6799 L52.0414,16.7079 L42.9544,21.8989 L44.8924,9.1919 L38.1024,19.4289 L34.5904,8.0819 L33.3864,21.0089 L27.1334,15.9589 L28.3094,19.3789 C28.5794,20.1619 28.1634,21.0159 27.3804,21.2849 C26.5954,21.5569 25.7434,21.1399 25.4734,20.3549 L22.5974,12.0029 L24.9584,10.3479 L30.9174,15.1589 L32.3024,0.3049 L35.2274,-0.0001 L39.0984,12.5009 L46.1504,1.8689 L48.8834,2.9249 L46.8564,16.2159 L55.4274,11.3179 L57.4664,13.3789 L51.4104,23.7269 L57.2574,23.7789 L58.1084,26.5039 L48.7724,33.1009 C48.5104,33.2869 48.2084,33.3759 47.9084,33.3759" id="exclamation" fill="#E4B931"></path>
        </g>
    </g>
</svg>